<svg width="500" height="500" viewBox="0 0 500 500" xmlns="http://www.w3.org/2000/svg">
  <path fill="#e6e6e6" d="M118.794 105.494h109.153v122.987H118.794z"/>
  <path fill="#e6e6e6" d="M243.377 105.494H352.53v122.987H243.377z"/>
  <path fill="#e6e6e6" d="M118.794 243.114h109.153v122.987H118.794z"/>
  <path fill="#e6e6e6" d="M243.377 243.114H352.53v122.987H243.377z"/>
  <path d="m269.76 274.723 19.943-8.19 2.319 40.944s4.174 12.523 2.783 17.34c0 0 .927 8.19-1.392 8.671-2.32.482-8.814 1.446-9.273.963-.46-.482-.464-1.927-.464-1.927s-4.638 3.372-5.102 7.225c0 0-19.48 6.262-19.943.481-.464-5.78 9.74-10.597 9.74-10.597l7.884-12.524z" fill="#fff"/>
  <path d="m311.967 274.723 19.941-8.19 2.32 40.944s4.173 12.523 2.782 17.34c0 0 .928 8.19-1.392 8.671-2.319.482-8.814 1.446-9.273.963-.459-.482-.463-1.927-.463-1.927s-4.639 3.372-5.102 7.225c0 0-19.48 6.262-19.944.481-.464-5.78 9.74-10.597 9.74-10.597l7.884-12.524z" fill="#fff"/>
  <path d="M313.916 124.243s-4.247 12.323.674 17.88l-4.103 14.64s14.575 45.408 10.411 51.75c0 0-15.546 8.073-46.64-2.883l12.63-50.886-1.804-21.48 2.498-10.09 5.552-.572s-3.331 12.973 2.776 14.992c6.108 2.018 12.065-14.668 12.065-14.668z" fill="#3f3d56"/>
  <path d="m149.02 203.792 5.358 2.277 25.578-34.911 8.038 40.982 5.359-1.012c3.437-35.332 6.243-71.37 2.801-88.416l-19.853-.886-9.012 29.856-4.385 20.239z" fill="#fff"/>
  <path d="M198.616 271.206c-1.6-1.994-4.35-3.072-6.991-3.655.079-.25-8.033-1.989-8.171-1.63l-3.058-2.53-9.391 5.066-5.279-3.731-2.451.904c.1-.45-7.611.937-7.611.937-1.47.055-3.355.15-5.46.32-7.376.589-7.943 20.425-7.943 20.425a30.149 31.31 0 0 1 10.677-2.322l1.993 58.083c10.253-.914 21.006.15 32.148 2.75l5.226-53.006 12.172-4.916s-2.079-11.98-5.86-16.695z" fill="#fff"/>
</svg>