<svg width="500" height="500" viewBox="0 0 500 500" xmlns="http://www.w3.org/2000/svg">
  <path d="M427.93 354.119H70.252a4.308 4.308 0 0 1-4.303-4.304v-220.92a4.308 4.308 0 0 1 4.303-4.303h357.68a4.308 4.308 0 0 1 4.303 4.304v220.92a4.308 4.308 0 0 1-4.303 4.303z" fill="none" stroke="#d7d7d7" stroke-miterlimit="10" stroke-width=".926"/>
  <path d="M94.16 143.72H77.902a4.308 4.308 0 0 1-4.303-4.304v-1.913a4.308 4.308 0 0 1 4.303-4.304H94.16a4.308 4.308 0 0 1 4.304 4.304v1.913a4.308 4.308 0 0 1-4.304 4.303zM382.025 143.72h-9.563a4.308 4.308 0 0 1-4.304-4.304v-1.913a4.308 4.308 0 0 1 4.304-4.304h9.563a4.308 4.308 0 0 1 4.304 4.304v1.913a4.308 4.308 0 0 1-4.304 4.303zM317.949 201.101a2.393 2.393 0 0 0-2.391 2.39v1.914a2.393 2.393 0 0 0 2.391 2.39h55.469a2.393 2.393 0 0 0 2.39-2.39v-1.913a2.393 2.393 0 0 0-2.39-2.391zM299.778 298.65H77.902a4.308 4.308 0 0 1-4.303-4.304V153.761a4.308 4.308 0 0 1 4.303-4.304h221.876a4.308 4.308 0 0 1 4.304 4.304v140.585a4.308 4.308 0 0 1-4.304 4.304zM300.734 345.512h-102.33a4.308 4.308 0 0 1-4.304-4.304v-33.473a4.308 4.308 0 0 1 4.304-4.303h102.33a4.308 4.308 0 0 1 4.304 4.303v33.473a4.308 4.308 0 0 1-4.304 4.304zM179.822 345.277H77.492a4.308 4.308 0 0 1-4.304-4.304v-33.472a4.308 4.308 0 0 1 4.303-4.304h102.331a4.308 4.308 0 0 1 4.304 4.304v33.472a4.308 4.308 0 0 1-4.304 4.304zM420.28 303.432a4.308 4.308 0 0 1 4.303 4.303v33.473a4.308 4.308 0 0 1-4.303 4.304H317.949a4.308 4.308 0 0 1-4.304-4.304v-33.473a4.308 4.308 0 0 1 4.304-4.303M317.949 216.403a2.393 2.393 0 0 0-2.391 2.39 2.393 2.393 0 0 0 2.391 2.392h85.116a2.393 2.393 0 0 0 2.391-2.391 2.393 2.393 0 0 0-2.39-2.391zM317.949 229.792a2.393 2.393 0 0 0-2.391 2.39 2.393 2.393 0 0 0 2.391 2.392h85.116a2.393 2.393 0 0 0 2.391-2.391 2.393 2.393 0 0 0-2.39-2.391zM317.949 242.225a2.393 2.393 0 0 0-2.391 2.39 2.393 2.393 0 0 0 2.391 2.391h55.469a2.393 2.393 0 0 0 2.39-2.39 2.393 2.393 0 0 0-2.39-2.391M401.152 143.72h-9.563a4.308 4.308 0 0 1-4.304-4.304v-1.913a4.308 4.308 0 0 1 4.304-4.304h9.563a4.308 4.308 0 0 1 4.304 4.304v1.913a4.308 4.308 0 0 1-4.304 4.303zM420.28 143.72h-9.564a4.308 4.308 0 0 1-4.304-4.304v-1.913a4.308 4.308 0 0 1 4.304-4.304h9.564a4.308 4.308 0 0 1 4.303 4.304v1.913a4.308 4.308 0 0 1-4.303 4.303z" fill="#d7d7d7"/>
  <path d="M191.727 218.254h-82.624a2.927 2.927 0 0 1-2.923-2.923v-43.325a2.927 2.927 0 0 1 2.923-2.923h82.624a2.927 2.927 0 0 1 2.924 2.923v43.325a2.927 2.927 0 0 1-2.924 2.923z" fill="#fff"/>
  <path d="m123.666 177.34-.064-.064-.064.064a8.035 8.035 0 0 0-11.366.01c-3.138 3.14-3.2 8.293-.06 11.43l11.498 11.487 11.491-11.501c3.138-3.142 3.072-8.293-.067-11.43a8.035 8.035 0 0 0-11.366.008v.001z" fill="#ff6363"/>
</svg>