<svg width="500" height="500" viewBox="0 0 500 500" xmlns="http://www.w3.org/2000/svg">
  <path d="M354.57 114.748H135.253a15.755 15.755 0 0 0-15.742 15.733v197.623a15.762 15.762 0 0 0 15.742 15.742H354.57a15.755 15.755 0 0 0 15.733-15.742V130.48a15.747 15.747 0 0 0-15.733-15.733z" fill="#fff"/>
  <path d="M254.36 160.106h-23.43a4.339 4.339 0 1 1 0-8.678h23.43a4.339 4.339 0 0 1 0 8.678z" fill="#6c63ff"/>
  <path d="M315.106 250.992H170.185a4.339 4.339 0 0 1 0-8.678h144.921a4.339 4.339 0 0 1 0 8.678zM315.106 279.629H170.185a4.339 4.339 0 0 1 0-8.678h144.921a4.339 4.339 0 0 1 0 8.678zM315.106 308.266H170.185a4.339 4.339 0 0 1 0-8.678h144.921a4.339 4.339 0 0 1 0 8.678zM285.485 173.125h-85.677a15.755 15.755 0 0 0-15.742 15.733v25.8a15.762 15.762 0 0 0 15.742 15.741h85.677a15.755 15.755 0 0 0 15.733-15.742v-25.8a15.747 15.747 0 0 0-15.733-15.732zm13.997 41.532a14.006 14.006 0 0 1-14.006 14.006h-61.503a38.172 38.172 0 0 1-38.171-38.171v-1.634a14.02 14.02 0 0 1 14.006-13.998h85.677a14.012 14.012 0 0 1 13.997 13.998z" fill="#e6e6e6"/>
  <circle cx="243.605" cy="196.321" r="14.752" fill="#e6e6e6"/>
  <path fill="#e6e6e6" d="m211.497 230.165 20.827-5.207 2.595-8.565 19.968-.113 5.979 8.47 15.1 3.913 1.37.356.209 1.38zM235.221 205.74c3.166-2.475-1.162-13.36 4.066-11.037 0 0 6.39-4.066 7.673-1.394 1.487 3.094 6.773 1.69 10.02.599a7.889 7.889 0 0 1-.54-1.853 14.836 14.836 0 0 0 1.9 1.272 3.856 3.856 0 0 0 1.161-.953 2.36 2.36 0 0 0 .297-2.678c-.54-.83-1.656-1.086-2.312-1.824a.794.794 0 0 1-.11-.73 2.087 2.087 0 0 0-1.87-2.613.75.75 0 0 1-.355-.078 8.138 8.138 0 0 1-1.516-1.197c.76.035-.17-4.623-7.714-3.74-1.9-.07-2.892 2.025-4.762 2.356-4.534-2.59-8.58 1.146-10.55 4.719-1.97 3.572-4.101 15.085 4.612 19.15z"/>
  <path d="M354.57 114.748H135.253a15.755 15.755 0 0 0-15.742 15.733v197.623a15.762 15.762 0 0 0 15.742 15.742H354.57a15.755 15.755 0 0 0 15.733-15.742V130.48a15.747 15.747 0 0 0-15.733-15.733zm13.997 213.356a14.006 14.006 0 0 1-14.006 14.006H234.234a112.987 112.987 0 0 1-112.988-112.987V130.48a14.02 14.02 0 0 1 14.007-13.997H354.57a14.012 14.012 0 0 1 13.997 13.997z" fill="#e6e6e6"/>
</svg>