<svg width="500" height="500" viewBox="0 0 500 500" xmlns="http://www.w3.org/2000/svg">
  <path fill="#f2f2f2" d="m74.945 279.345 280.478-166.2 8.435 14.235L83.38 293.58zM135.905 293.28l280.478-166.2 8.436 14.235-280.478 166.2z"/>
  <circle cx="257.635" cy="220.158" r="87.814" fill="#fff"/>
  <path d="M169.167 220.158c0-48.782 39.686-88.468 88.468-88.468 48.78 0 88.467 39.686 88.467 88.468 0 48.78-39.686 88.467-88.467 88.467-48.782 0-88.468-39.686-88.468-88.467zm1.306 0c0 48.06 39.1 87.16 87.162 87.16 48.06 0 87.161-39.1 87.161-87.16 0-48.061-39.1-87.162-87.161-87.162s-87.162 39.1-87.162 87.162z" fill="#3f3d56"/>
  <path d="M241.98 220.54a15.654 15.654 0 1 1 15.655 15.653 15.654 15.654 0 0 1-15.654-15.654zm15.655-14.89a14.907 14.907 0 0 0-14.89 14.89 14.89 14.89 0 1 0 14.89-14.89z" fill="#3f3d56" style="isolation:isolate"/>
  <path d="M227.854 220.54a29.78 29.78 0 1 1 29.78 29.78 29.78 29.78 0 0 1-29.78-29.78zm29.78-29.018a29.017 29.017 0 1 0 29.018 29.017 29.05 29.05 0 0 0-29.017-29.017z" fill="#ccc" style="isolation:isolate"/>
  <path d="M199.6 220.54a58.034 58.034 0 1 1 58.035 58.033A58.1 58.1 0 0 1 199.6 220.54zm58.035-57.27a57.27 57.27 0 1 0 57.27 57.27 57.335 57.335 0 0 0-57.27-57.27z" fill="#ccc" style="isolation:isolate"/>
  <circle cx="257.635" cy="220.158" r="7.254" fill="#6c63ff" style="isolation:isolate"/>
  <circle cx="238.926" cy="241.157" r="7.254" fill="#6c63ff" style="isolation:isolate"/>
  <circle cx="-261.476" cy="297.732" r="7.254" fill="#6c63ff" style="isolation:isolate" transform="rotate(-90)"/>
  <circle cx="257.635" cy="220.158" r="3.436" fill="#2f2e41"/>
  <circle cx="-261.476" cy="297.732" r="3.436" fill="#2f2e41" transform="rotate(-90)"/>
  <circle cx="238.926" cy="241.539" r="3.436" fill="#2f2e41"/>
  <circle cx="97.278" cy="181.596" r="3.436" fill="#6c63ff"/>
  <path fill="#2f2e41" d="M106.632 181.023h151.576v39.325h-.764v-38.561H106.632z"/>
  <path d="M87.35 181.596a9.927 9.927 0 1 1 9.928 9.926 9.927 9.927 0 0 1-9.927-9.926zm9.928-9.164a9.163 9.163 0 1 0 9.163 9.164 9.174 9.174 0 0 0-9.163-9.164z" fill="#2f2e41"/>
  <circle cx="120.186" cy="280.482" r="3.436" fill="#6c63ff"/>
  <path d="M110.259 280.482a9.927 9.927 0 1 1 9.927 9.927 9.927 9.927 0 0 1-9.927-9.927zm9.927-9.163a9.163 9.163 0 1 0 9.163 9.163 9.174 9.174 0 0 0-9.163-9.163z" fill="#2f2e41"/>
  <circle cx="404.461" cy="220.682" r="3.436" fill="#6c63ff"/>
  <path d="M394.534 220.682a9.927 9.927 0 1 1 9.927 9.927 9.927 9.927 0 0 1-9.927-9.927zm9.927-9.163a9.174 9.174 0 0 0-9.163 9.163 9.163 9.163 0 1 0 9.163-9.163z" fill="#2f2e41"/>
  <path fill="#2f2e41" d="m297.556 221.834 97.354-1.533.012.763-96.602 1.521v38.569h-.764zM238.544 241.539h.764v39.325H129.731v-.763h108.813z"/>
  <path fill="#ccc" d="M76.279 199.54h41.998v2.673H76.279zM76.279 207.176h41.998v2.673H76.279zM76.279 214.812h41.998v2.673H76.279zM99.187 298.427h41.998v2.673H99.187zM99.187 306.063h41.998v2.673H99.187zM99.187 313.699h41.998v2.673H99.187zM424.641 204.987h-41.998v-2.673h41.998zM424.641 197.351h-41.998v-2.673h41.998zM424.641 189.715h-41.998v-2.673h41.998z"/>
</svg>