<svg width="500" height="500" viewBox="0 0 500 500" xmlns="http://www.w3.org/2000/svg">
  <path d="M300.13 277.392a5.353 5.353 0 0 1-4.787-2.923 63.085 63.085 0 0 0-37.431-31.511 71.586 71.586 0 0 0-10.032-2.272l-.691-.105 35.697-111.611.604.02c69.353 18.846 109.033 74.429 119.542 91.015a5.362 5.362 0 0 1-2.143 7.664l-98.35 49.153a5.377 5.377 0 0 1-2.409.57z" fill="#e6e6e6"/>
  <circle cx="240.226" cy="289.074" r="9.545" fill="#3f3d56"/>
  <path d="M176.17 277.253a5.36 5.36 0 0 1-2.505-.626l-97.78-51.583a5.369 5.369 0 0 1-2.077-7.547 216.75 216.75 0 0 1 48.907-54.853c33.767-26.763 72.177-40.19 114.155-39.964a181.215 181.215 0 0 1 46.608 6.31l.603.163-35.707 111.606-.502-.076a79.559 79.559 0 0 0-9.71-.861c-36.332-1.026-52.076 23.714-57.16 34.397a5.267 5.267 0 0 1-3.126 2.756 5.402 5.402 0 0 1-1.705.278z" fill="#6c63ff"/>
  <path d="m283.334 129.566-25.246 112.821a72.045 72.045 0 0 0-10.118-2.29l35.352-110.53z" fill="#3f3d56"/>
</svg>