<svg width="500" height="500" viewBox="0 0 500 500" xmlns="http://www.w3.org/2000/svg">
  <path fill="#2f2e41" d="M173.572 268.837h130.192v51.898H160.916v-1.028h141.82v-49.842H172.925l-6.306-13.138.927-.445z"/>
  <circle cx="179.928" cy="335.122" r="10.791" fill="#3f3d56"/>
  <circle cx="286.293" cy="335.122" r="10.791" fill="#3f3d56"/>
  <path d="M319.042 252.908H158.481l-34.742-113.559H354.82l-.21.668zm-159.801-1.028h159.047l35.132-111.503H125.128Z" fill="#2f2e41"/>
  <path fill="#f2f2f2" d="m337.934 146.286-.185.593-31.24 100.12H165.482l-30.515-100.713z"/>
  <path fill="#2f2e41" d="M363.488 103.38h39.447v1.028h-38.657l-6.578 24.796-.994-.264zM134.966 173.776h208.307v1.028H134.966zM146.549 211.638h184.795v1.028H146.549z"/>
  <path fill="#2f2e41" d="M238.763 139.863h1.028v112.531h-1.028zM278.425 252.36l7.377-112.53 1.026.068-7.377 112.529zM191.747 139.896l1.026-.066 7.335 112.53-1.026.068z"/>
</svg>