<svg width="500" height="500" viewBox="0 0 500 500" xmlns="http://www.w3.org/2000/svg">
  <g transform="matrix(.44918 0 0 .44918 -89.385 38.727)">
    <g transform="translate(382.003 195.455)">
      <path d="m384.222 369.783-261.831 67.424a34.622 34.622 0 0 1-42.114-24.866L1.097 104.842a34.622 34.622 0 0 1 24.866-42.114L269.554.001l62.343 27.91 77.191 299.757a34.622 34.622 0 0 1-24.866 42.115z" fill="#f2f2f2"/>
      <path d="M28.441 72.369a24.655 24.655 0 0 0-17.708 29.99l79.185 307.5a24.655 24.655 0 0 0 29.99 17.708l261.831-67.423a24.655 24.655 0 0 0 17.708-29.99L323.452 35.039 268.66 10.51Z" fill="#fff"/>
      <path d="M331.232 29.5 290.71 39.935a11.518 11.518 0 0 1-14.026-8.282l-7.707-29.929a.72.72 0 0 1 .989-.837l61.379 27.258a.72.72 0 0 1-.113 1.355z" fill="#f2f2f2"/>
      <path d="m309.914 292.095-119.208 30.7a5.759 5.759 0 0 1-2.872-11.154l119.208-30.7a5.759 5.759 0 1 1 2.872 11.154z" fill="#ccc"/>
      <path d="m337.765 304.993-142.213 36.622a5.759 5.759 0 1 1-2.872-11.154l142.213-36.622a5.759 5.759 0 0 1 2.872 11.154z" fill="#ccc"/>
      <circle cx="20.355" cy="20.355" r="20.355" transform="translate(121.697 319.055)" fill="#6c63ff"/>
      <path d="M297.238 238.826 138.917 279.58a17.835 17.835 0 0 1-21.694-12.812L84.046 137.879a17.835 17.835 0 0 1 12.812-21.69l158.32-40.754a17.835 17.835 0 0 1 21.694 12.812l33.178 128.889a17.835 17.835 0 0 1-12.812 21.69z" fill="#fff"/>
      <path d="M297.238 238.826 138.917 279.58a17.835 17.835 0 0 1-21.694-12.812L84.046 137.879a17.835 17.835 0 0 1 12.812-21.69l158.32-40.754a17.835 17.835 0 0 1 21.694 12.812l33.178 128.889a17.835 17.835 0 0 1-12.812 21.69zM97.38 118.215a15.737 15.737 0 0 0-11.3 19.142l33.178 128.889a15.737 15.737 0 0 0 19.142 11.3l158.317-40.75a15.737 15.737 0 0 0 11.3-19.142L274.842 88.765a15.737 15.737 0 0 0-19.142-11.3z" fill="#e6e6e6"/>
      <path d="m247.146 118.769-79.9 20.568a2.862 2.862 0 0 1-3.467-1.8 2.757 2.757 0 0 1 1.942-3.5l81.335-20.937c3.286 1.665 2.421 5.07.091 5.67z" fill="#f2f2f2"/>
      <path d="m250.751 132.78-79.9 20.568a2.862 2.862 0 0 1-3.467-1.8 2.757 2.757 0 0 1 1.942-3.5l81.335-20.937c3.286 1.665 2.421 5.07.091 5.67z" fill="#f2f2f2"/>
      <path d="m155.633 165.778-24.385 6.275a3.1 3.1 0 0 1-3.776-2.23l-7.408-28.77a3.1 3.1 0 0 1 2.23-3.776L146.679 131a3.105 3.105 0 0 1 3.776 2.23l7.408 28.777a3.1 3.1 0 0 1-2.23 3.776z" fill="#6c63ff"/>
      <path d="m257.908 161.541-121.945 31.39a2.862 2.862 0 0 1-3.467-1.8 2.757 2.757 0 0 1 1.942-3.5l123.38-31.76c3.286 1.665 2.421 5.07.091 5.67z" fill="#f2f2f2"/>
      <path d="M261.519 175.559 139.572 206.95a2.862 2.862 0 0 1-3.467-1.8 2.757 2.757 0 0 1 1.942-3.5l123.38-31.76c3.286 1.665 2.421 5.07.091 5.67z" fill="#f2f2f2"/>
      <path d="m265.123 189.571-121.945 31.39a2.862 2.862 0 0 1-3.467-1.8 2.757 2.757 0 0 1 1.942-3.5l123.379-31.76c3.286 1.665 2.421 5.07.091 5.67z" fill="#f2f2f2"/>
      <path d="m268.733 203.589-121.946 31.39a2.862 2.862 0 0 1-3.467-1.8 2.757 2.757 0 0 1 1.942-3.5l123.38-31.76c3.285 1.665 2.421 5.07.091 5.67z" fill="#f2f2f2"/>
      <path d="m272.339 217.6-121.945 31.39a2.862 2.862 0 0 1-3.467-1.8 2.757 2.757 0 0 1 1.942-3.5l123.38-31.76c3.285 1.665 2.42 5.07.09 5.67z" fill="#f2f2f2"/>
      <path d="M143.554 346.545a2.111 2.111 0 0 1-1.335-.092l-.026-.011-5.545-2.351a2.126 2.126 0 1 1 1.664-3.913l3.593 1.528 4.708-11.076a2.125 2.125 0 0 1 2.787-1.124l-.028.072.029-.073a2.127 2.127 0 0 1 1.124 2.788l-5.539 13.023a2.126 2.126 0 0 1-1.431 1.224z" fill="#fff"/>
    </g>
    <g>
      <g transform="rotate(11 -683.063 4246.276)">
        <path d="M304.956 386.7H34.583A34.622 34.622 0 0 1 0 352.114V34.583A34.622 34.622 0 0 1 34.583 0h251.538l53.418 42.577v309.537a34.622 34.622 0 0 1-34.583 34.586Z" fill="#e6e6e6"/>
        <path d="M34.583 9.956A24.655 24.655 0 0 0 9.956 34.583v317.531a24.655 24.655 0 0 0 24.627 24.627h270.373a24.655 24.655 0 0 0 24.627-24.627V47.374L282.639 9.956Z" fill="#fff"/>
        <path d="M252.368 102.285H129.271a5.759 5.759 0 0 1 0-11.518h123.1a5.759 5.759 0 0 1 0 11.518z" fill="#6c63ff"/>
        <path d="M276.124 121.722H129.271a5.759 5.759 0 0 1 0-11.518h146.853a5.759 5.759 0 1 1 0 11.518z" fill="#6c63ff"/>
        <path d="M252.369 177.868H129.275a5.758 5.758 0 1 0 0 11.517h123.094a5.759 5.759 0 0 0 0-11.517z" fill="#ccc"/>
        <path d="M276.126 197.307H129.275a5.759 5.759 0 1 0 0 11.517h146.85a5.759 5.759 0 1 0 0-11.517z" fill="#ccc"/>
        <path d="M252.368 276.493H129.271a5.759 5.759 0 0 1 0-11.518h123.1a5.759 5.759 0 0 1 0 11.518z" fill="#ccc"/>
        <path d="M276.124 295.929H129.271a5.759 5.759 0 0 1 0-11.518h146.853a5.759 5.759 0 1 1 0 11.518z" fill="#ccc"/>
        <circle cx="20.355" cy="20.355" r="20.355" transform="translate(57.655 85.89)" fill="#6c63ff"/>
        <path d="M75.994 114.009a2.111 2.111 0 0 1-1.27-.422l-.023-.017-4.784-3.66a2.126 2.126 0 0 1 2.587-3.374l3.1 2.376 7.32-9.552a2.125 2.125 0 0 1 2.98-.393l-.045.061.047-.063a2.127 2.127 0 0 1 .393 2.98l-8.614 11.232a2.126 2.126 0 0 1-1.691.829z" fill="#fff"/>
        <path d="M100.457 193.346a20.354 20.354 0 0 1-20.351 20.362 4.372 4.372 0 0 1-.524-.021 20.353 20.353 0 1 1 20.875-20.341Z" fill="#6c63ff"/>
        <circle cx="20.355" cy="20.355" r="20.355" transform="translate(57.655 260.097)" fill="#6c63ff"/>
        <path d="M338.499 43.948h-41.844a11.518 11.518 0 0 1-11.518-11.518V1.525a.72.72 0 0 1 1.167-.564l52.642 41.7a.72.72 0 0 1-.447 1.284z" fill="#ccc"/>
      </g>
    </g>
    <path d="M878.098 619.408a9.158 9.158 0 0 1-12.587 3.05l-106.853-65.176a9.158 9.158 0 0 1 9.538-15.637l106.852 65.176a9.158 9.158 0 0 1 3.049 12.587z" fill="#3f3d56"/>
    <path d="M771.245 554.237a73.265 73.265 0 1 1-24.4-100.7 73.265 73.265 0 0 1 24.4 100.7zm-109.458-66.77a54.949 54.949 0 1 0 75.524-18.3 54.949 54.949 0 0 0-75.524 18.3z" fill="#3f3d56"/>
    <circle cx="57.007" cy="57.007" r="57.007" transform="rotate(19 -986.937 2230.905)" fill="#6c63ff"/>
  </g>
</svg>