<svg width="500" height="500" viewBox="0 0 500 500" xmlns="http://www.w3.org/2000/svg">
  <circle cx="242.409" cy="236.2" r="112.013" fill="#6c63ff"/>
  <circle cx="242.255" cy="259.28" r="16.002" fill="#3f3d56"/>
  <circle cx="242.255" cy="259.28" r="7.386" fill="#6c63ff"/>
  <path d="M271.96 294.9h-59.1a22.097 22.097 0 0 1-22.074-22.072v-27.097a22.098 22.098 0 0 1 22.073-22.073h59.1a22.098 22.098 0 0 1 22.073 22.073v27.097A22.097 22.097 0 0 1 271.96 294.9zm-59.1-68.93a19.785 19.785 0 0 0-19.763 19.761v27.097a19.784 19.784 0 0 0 19.762 19.761h59.1a19.783 19.783 0 0 0 19.762-19.76V245.73a19.784 19.784 0 0 0-19.761-19.762z" fill="#fff"/>
  <path d="M209.359 280.191h52.457a20.734 20.734 0 0 0 20.734-20.733V236.78a20.642 20.642 0 0 0-1.367-7.355 20.679 20.679 0 0 1 8.24 16.519v22.676a20.734 20.734 0 0 1-20.734 20.734h-52.457a20.723 20.723 0 0 1-19.367-13.378 20.615 20.615 0 0 0 12.494 4.214zM243.319 175.465c-10.956 0-20.586 4.96-26.039 12.405a33.652 33.652 0 0 1 20.076-6.442c16.966 0 30.768 11.885 30.768 26.492v12.143h5.963v-18.106c0-14.607-13.802-26.492-30.768-26.492z" fill="#3f3d56"/>
  <path d="M278.184 226.277h-71.55v-21.052c0-16.985 16.049-30.803 35.775-30.803 19.727 0 35.775 13.818 35.775 30.803zm-69.239-2.311h66.928v-18.74c0-15.711-15.011-28.493-33.464-28.493-18.452 0-33.464 12.782-33.464 28.492z" fill="#fff"/>
  <path d="M260.733 218.24h-36.648a6.226 6.226 0 0 1-6.219-6.219v-8.378c0-11.68 11.01-21.184 24.543-21.184s24.543 9.503 24.543 21.184v8.378a6.226 6.226 0 0 1-6.219 6.22zm-18.324-33.47c-12.259 0-22.232 8.466-22.232 18.873v8.378a3.912 3.912 0 0 0 3.908 3.908h36.648a3.912 3.912 0 0 0 3.908-3.908v-8.378c0-10.407-9.973-18.873-22.232-18.873z" fill="#fff"/>
</svg>