<svg width="500" height="500" viewBox="0 0 500 500" xmlns="http://www.w3.org/2000/svg">
  <path d="M79.12 195.045a3.064 3.064 0 0 1-1.11-.21A3.024 3.024 0 0 1 76.07 192v-31.783a4.063 4.063 0 0 0-4.058-4.058h-6.508a10.154 10.154 0 0 1-10.143-10.143V82.112a10.154 10.154 0 0 1 10.143-10.143H295.08a10.154 10.154 0 0 1 10.143 10.143v63.903a10.154 10.154 0 0 1-10.143 10.143H117.88a4.069 4.069 0 0 0-2.991 1.316l-33.533 36.581a3.025 3.025 0 0 1-2.235.99zM65.505 73.32a8.801 8.801 0 0 0-8.792 8.791v63.903a8.801 8.801 0 0 0 8.792 8.791h6.508a5.415 5.415 0 0 1 5.41 5.41v31.783a1.691 1.691 0 0 0 2.937 1.143l33.533-36.582a5.423 5.423 0 0 1 3.988-1.754h177.2a8.801 8.801 0 0 0 8.792-8.791V82.112a8.801 8.801 0 0 0-8.791-8.791z" fill="#ccc"/>
  <circle cx="80.24" cy="91.875" r="8.875" fill="#ccc"/>
  <path d="M284.726 140.985H75.858a4.734 4.734 0 1 1 0-9.467h208.868a4.734 4.734 0 1 1 0 9.467zM216.681 120.868H75.858a4.734 4.734 0 1 1 0-9.467h140.823a4.734 4.734 0 1 1 0 9.467zM79.12 420.48a3.064 3.064 0 0 1-1.11-.21 3.024 3.024 0 0 1-1.94-2.835V385.65a4.062 4.062 0 0 0-4.058-4.058h-6.508A10.154 10.154 0 0 1 55.36 371.45v-63.903a10.154 10.154 0 0 1 10.143-10.143H295.08a10.154 10.154 0 0 1 10.143 10.143v63.903a10.154 10.154 0 0 1-10.143 10.143H117.88a4.069 4.069 0 0 0-2.991 1.316L81.356 419.49a3.025 3.025 0 0 1-2.235.99zM65.505 298.756a8.801 8.801 0 0 0-8.792 8.791v63.903a8.801 8.801 0 0 0 8.792 8.791h6.508a5.415 5.415 0 0 1 5.41 5.41v31.784a1.691 1.691 0 0 0 2.937 1.142l33.533-36.582a5.423 5.423 0 0 1 3.988-1.754h177.2a8.801 8.801 0 0 0 8.792-8.791v-63.903a8.801 8.801 0 0 0-8.791-8.791z" fill="#ccc"/>
  <path d="M418.145 303.325a3.024 3.024 0 0 1-2.235-.99l-33.533-36.581a4.068 4.068 0 0 0-2.991-1.316H202.185a10.154 10.154 0 0 1-10.143-10.143v-63.903a10.154 10.154 0 0 1 10.143-10.143h229.577a10.154 10.154 0 0 1 10.143 10.143v63.903a10.154 10.154 0 0 1-10.143 10.143h-6.509a4.062 4.062 0 0 0-4.057 4.058v31.783a3.023 3.023 0 0 1-1.94 2.836 3.058 3.058 0 0 1-1.111.21zm-215.96-121.724a8.801 8.801 0 0 0-8.791 8.791v63.903a8.801 8.801 0 0 0 8.791 8.791h177.2a5.423 5.423 0 0 1 3.988 1.754l33.533 36.582a1.691 1.691 0 0 0 2.938-1.143v-31.783a5.415 5.415 0 0 1 5.41-5.41h6.508a8.801 8.801 0 0 0 8.791-8.791v-63.903a8.801 8.801 0 0 0-8.79-8.791z" fill="#3f3d56"/>
  <circle cx="80.24" cy="317.31" r="8.875" fill="#ccc"/>
  <path d="M284.726 366.42H75.858a4.734 4.734 0 1 1 0-9.466h208.868a4.734 4.734 0 1 1 0 9.467zM216.681 346.303H75.858a4.734 4.734 0 1 1 0-9.467h140.823a4.734 4.734 0 1 1 0 9.467z" fill="#ccc"/>
  <circle cx="216.921" cy="199.563" r="8.875" fill="#3f3d56"/>
  <path d="M421.407 248.674H212.54a4.734 4.734 0 1 1 0-9.467h208.867a4.734 4.734 0 1 1 0 9.467zM353.363 228.556H212.54a4.734 4.734 0 1 1 0-9.467h140.823a4.734 4.734 0 1 1 0 9.467z" fill="#6c63ff"/>
</svg>