<svg viewBox="0 -50 638 170" version="1.1" width="638" height="170" xmlns="http://www.w3.org/2000/svg"><defs><style>.cls-1{fill:#231f20}</style></defs><path class="cls-1" d="M234.35 11.59C221.58 4.12 204.54 0 186.35 0s-35.22 4.12-48 11.59c-9.35 5.52-14.7 14.24-14.7 23.9 0 9.66 5.35 18.38 14.7 23.93 12.73 7.48 29.77 11.59 48 11.59s35.21-4.12 48-11.59c9.34-5.54 14.7-14.26 14.7-23.93s-5.36-18.38-14.7-23.9zm-48 56.78c-11.63 0-31.3-6.92-31.3-32.88 0-22.69 15.72-32.85 31.3-32.85 20.89 0 33.35 12.29 33.35 32.85.03 22.13-10.87 32.88-33.32 32.88z" id="path1"/><path class="cls-1" id="polygon1" d="M552.79 32.45V3.65l11.3.02V1.24l-.01-.22h-51.83v2.65h11.29v63.74h-11.29v2.63h51.84v-2.63h-11.3V35.09h44.63v32.32h-11.29v2.63h51.65l.22-.01v-2.62h-11.31V3.67H638V1.02h-51.87v2.65h11.29v28.78z"/><path class="cls-1" d="m313.38.07-.07-.07h-1.56l-55 67.41h-12.47v2.63h31.08v-2.63h-15.22L274 50.54h49.66l15.5 16.9h-14.83v2.63h65.13v-2.63h-14.41zm7.83 47.81h-45.15l21-25.88z" id="path2"/><path class="cls-1" d="m102.89 43.31-.05.15a37.58 37.58 0 0 1-7.91 12.46c-5.34 5.68-15 12.45-30.73 12.45-10.61 0-19.22-3.91-24.91-11.31a35.88 35.88 0 0 1-7-21.51c0-21.38 16.45-32.91 31.93-32.91a42.29 42.29 0 0 1 27.51 9.57c6.27 5.23 9.86 11.39 11.13 15.39v.16H105V1.02h-1.94l-13 7a41.48 41.48 0 0 0-7.88-4 61.51 61.51 0 0 0-22.17-4c-15.69 0-30.23 3-40.93 8.42C6.6 14.76 0 24.12 0 35.54c0 23.29 22 35.59 63.61 35.59 10.32 0 19.28-2.66 26.62-7.92l12.71 6.87h2.05V43.3Z" id="path3"/><path class="cls-1" d="M451.67 2.64a42.29 42.29 0 0 1 27.51 9.57c6.27 5.23 9.86 11.39 11.13 15.39l.05.16h2.1V1.02h-1.94l-13 7a41.73 41.73 0 0 0-7.89-4 61.64 61.64 0 0 0-22.17-4c-15.69 0-30.22 3-40.92 8.42-12.5 6.34-19.1 15.71-19.1 27.07 0 23.29 22 35.59 63.61 35.59 10.33 0 19.29-2.66 26.62-7.91l12.71 6.87h2.05V43.32h-2.1l-.05.15a37.66 37.66 0 0 1-7.9 12.46c-5.33 5.68-15 12.45-30.74 12.45-10.61 0-19.22-3.91-24.91-11.31a35.91 35.91 0 0 1-7-21.52c.01-21.38 16.46-32.91 31.94-32.91Z"/></svg>
