<svg width="300" height="90" viewBox="0 -6 300 90" xmlns="http://www.w3.org/2000/svg"><g data-name="Group 1"><path data-name="Path 1" d="M209.747 59.382a9.43 9.43 0 0 1-9.67-9.895 9.709 9.709 0 1 1 19.415 0 9.49 9.49 0 0 1-9.745 9.895m71.062.225a9.567 9.567 0 0 1-9.818-10.12 9.589 9.589 0 0 1 9.818-10.045 9.71 9.71 0 0 1 9.971 10.045 9.685 9.685 0 0 1-9.97 10.12m-150.073 0a9.636 9.636 0 0 1-9.895-10.12 9.896 9.896 0 1 1 19.791 0 9.636 9.636 0 0 1-9.904 10.12M55.85 46.182a8.884 8.884 0 0 1 9.371-7.273 8.573 8.573 0 0 1 8.846 7.273zm10.046 22.181A17.785 17.785 0 0 0 80.514 62l-6.447-5.547a9.518 9.518 0 0 1-8.022 3.598c-5.473 0-8.846-2.25-10.045-6.747h26.912a23.554 23.554 0 0 0 .374-3.819c0-10.645-7.57-18.816-18.065-18.816a18.296 18.296 0 0 0-18.89 18.818c0 10.795 7.57 18.89 19.565 18.89m213.19 0a14 14 0 0 0 11.694-5.246v4.272H300V31.647h-9.22v4.199a14.158 14.158 0 0 0-11.689-5.173c-9.37 0-17.316 8.245-17.316 18.816 0 10.727 7.945 18.89 17.316 18.89m-150.072 0a13.858 13.858 0 0 0 11.62-5.246v4.272h9.22V31.647h-9.228v4.199a14.01 14.01 0 0 0-11.62-5.173c-9.445 0-17.316 8.32-17.316 18.816 0 10.645 7.871 18.89 17.316 18.89m25.636-.974h9.22V48.064c0-5.922 3.15-8.846 7.871-8.846a6.696 6.696 0 0 1 7.047 7.347v20.838h9.216V45.44c0-9.145-5.696-14.767-13.492-14.767-4.873 0-8.396 1.649-10.645 5.022v-4.048h-9.215zm55.09.975a18.852 18.852 0 1 0-18.89-18.89 18.718 18.718 0 0 0 18.89 18.89m29.986-.975h11.02c2.998-17.541 9.668-30.06 17.541-36.656l-6.447-5.547a48.894 48.894 0 0 0-16.716 31.86l-8.846-25.413h-10.12zM95.355 15.23h-9.221v52.182h9.22zm13.273 0h-9.145v52.182h9.145zm-67.016 56c-2.249-.15-3.298-2.773-3.298-6 0-3.524 2.324-11.09 3.224-14.693.9-3.672 1.273-9.52-2.024-12.892 12.513-5.022 31.034-22.189 33.427-25.936 2.324-3.75 2.85-8.471-.449-10.871-3.298-2.4-8.622.674-11.762 5.247-8.696 12.518-13.943 18.665-19.865 23.838-4.647 3.973-6.896 4.047-9.145 4.347.374-.6 8.545-13.943 11.769-18.141 3.818-5.022-.9-6.897-5.473-3.748a148.484 148.484 0 0 1-16.941 10.195C5.477 30.597 1.727 34.345 1.727 39.144a4.678 4.678 0 0 0 4.64 4.796c6.148 0 12.144-10.869 15.142-13.636 1.125-1.05 3.818-3.373 4.798-3.373.375 0 .6.226.6.9 0 2.098-4.047 8.022-10.345 14.767C7.5 52.485.004 56.384.004 62.682a6.153 6.153 0 0 0 6.447 6.363c6.97 0 11.694-9.37 14.467-14.018 1.126-1.874 7.347-13.418 8.62-15.892 1.424.674 2.25 2.181 1.8 5.247-.825 5.547-5.773 12.218-5.773 21.514 0 7.57 7.046 9.97 9.895 9.97 2.545 0 6.069-.952 6.896-3.6a.793.793 0 0 0-.749-1.048" fill="#f60b45"/></g></svg>
