<svg width="860" height="180" viewBox="0 -30 860 180" xmlns="http://www.w3.org/2000/svg"><path d="m751.367 42.112.26-1.635a2.283 2.283 0 0 0-.48-1.86 2.29 2.29 0 0 0-1.732-.812H737.67a2.253 2.253 0 0 0-2.242 1.83l-.327 1.777-12.547 68.586c-.113.66.088 1.35.529 1.865.445.509 1.12.812 1.795.797l5.794-.088h5.446a2.246 2.246 0 0 0 2.207-1.8l8.608-42.568c2.843-10.787 9.987-13.998 16.31-14.933.337-.044 1.614-.024 1.883-.2-4.33 25.808-9.459 56.364-9.547 56.873a2.273 2.273 0 0 0 .504 1.83 2.267 2.267 0 0 0 1.713.798h12.65a2.23 2.23 0 0 0 2.148-1.585c.406-1.244 3.43-18.78 5.245-29.313 4.683 7.102 19.637 29.86 19.637 29.86a2.261 2.261 0 0 0 1.89 1.014l15.115.024c.274 0 .523-.063.778-.146.323.146.68.244 1.032.234l12.762-.088a2.244 2.244 0 0 0 2.207-1.86l9.85-56.902 14.651-.02a2.266 2.266 0 0 0 2.227-1.875l1.972-11.482c.024-.127.039-.245.039-.382 0-.519-.19-1.037-.524-1.444a2.27 2.27 0 0 0-1.742-.802h-14.43c.704-4.058 3.273-19.03 3.273-19.03.015-.132.03-.26.03-.382a2.21 2.21 0 0 0-.529-1.458 2.22 2.22 0 0 0-1.722-.803h-12.684a2.267 2.267 0 0 0-2.226 1.87s-2.824 16.734-3.347 19.803c-1.145.034-2.33.058-2.33.058l-1.976.015-2.1-.039a2.252 2.252 0 0 0-1.947 1.047 2.222 2.222 0 0 0-1.86-1.023l-11.612-.024h-3.4c-.632 0-1.224.27-1.664.724 0 0-11.68 13.392-17.886 20.112 1.816-10.646 6.822-39.87 6.822-39.87.014-.138.03-.255.03-.392 0-.524-.192-1.043-.54-1.444a2.218 2.218 0 0 0-1.722-.808l-12.634-.029a2.25 2.25 0 0 0-2.241 1.865c-.294 1.742-1.605 9.52-3.362 19.881a.558.558 0 0 0-.059-.088 2.203 2.203 0 0 0-1.776-.773c-5.383.156-10.242 2.364-14.475 5.095zm63.291 64.21c-5.202-8.36-20.4-32.763-21.736-34.917 1.756-2.075 20.258-24.624 24.016-29.039l-1.663 8.742c-.128.665.058 1.35.489 1.86.43.514 1.062.822 1.742.822h5.764c-.655 3.984-6.684 40.727-8.612 52.532zm-433.831-29.19c-2.638 9.211-11.358 17.977-19.868 20.042-6.508.862-11.284.25-14.611-1.904-3.504-2.408-5.26-6.587-6.62-10.361a23.671 23.671 0 0 1-.358-4.038c0-8.39 4.487-16.475 12.742-22.666 4.747-3.324 11.191-4.577 16.848-3.28 3.19.735 7.555 2.634 10.281 7.567 1.527 2.678 2.34 6.07 2.34 9.378 0 1.83-.255 3.627-.754 5.262zm-64.334-59.204-2.73 14.83c-.127.661.054 1.351.484 1.885.431.509 1.067.812 1.757.812h13.197a2.26 2.26 0 0 0 2.227-1.86l2.48-14.698a2.356 2.356 0 0 0-.488-1.86 2.287 2.287 0 0 0-1.723-.822l-12.972-.107a2.262 2.262 0 0 0-2.232 1.82zm-28.508 59.204c.494-1.635.734-3.431.734-5.262 0-3.309-.803-6.7-2.325-9.378-2.74-4.933-7.1-6.832-10.295-7.566-5.642-1.298-12.102-.045-16.848 3.279-8.24 6.191-12.743 14.277-12.743 22.666 0 1.326.128 2.687.363 4.038 1.36 3.774 3.117 7.953 6.625 10.361 3.328 2.154 8.108 2.766 14.607 1.904 8.514-2.065 17.225-10.831 19.882-20.042zM179.724 66.55l34.997-.328c-.27-2.506-1.59-4.855-4.355-7.626-3.053-2.613-7.237-3.842-13.178-3.876-6.435.9-13.95 5.134-17.464 11.83zM710.1 77.132c-2.632 9.211-11.347 17.977-19.867 20.042-6.513.862-11.289.25-14.597-1.904-3.513-2.408-5.275-6.587-6.635-10.361-.225-1.35-.362-2.712-.362-4.038 0-8.39 4.492-16.475 12.757-22.666 4.732-3.324 11.191-4.577 16.843-3.28 3.185.735 7.56 2.634 10.28 7.567 1.513 2.678 2.33 6.07 2.33 9.378 0 1.83-.25 3.627-.749 5.262zM0 111.412v-1.404c.069-.147.157-.29.27-.411L94.304 1.194a1.73 1.73 0 0 1 1.287-.577h15.184c.5 0 .979.23 1.307.621.244.304.386.7.386 1.067 0 .108-.024.235-.044.348 0 0-11.778 58.18-13.965 68.703 7.413-8.38 62.15-70.162 62.15-70.162a1.634 1.634 0 0 1 1.258-.577h14.288a1.7 1.7 0 0 1 1.341.646c.318.41.436.954.304 1.453l-14.999 60.907c.123-.225.23-.445.343-.66 7.14-13.886 20.704-23.646 35.384-25.442.044-.01.103-.01.161-.01 13.276-.675 23.523 4.351 29.669 14.502.034.054.059.103.098.162 2.207 4.434 3.85 10.39 4.144 16.523 2.506-7.312 6.959-14.076 13.149-19.783 10.491-9.76 23.283-13.602 36.035-10.802.132.03.288.083.42.137l1.185.51c2.828 1.218 5.906 2.569 8.51 4.903 1.38-6.49 5.421-25.735 5.421-25.735a2.278 2.278 0 0 1 2.222-1.796h11.724c.68 0 1.317.304 1.747.808.43.518.612 1.204.494 1.864l-17.102 92.236a2.271 2.271 0 0 1-2.236 1.85l-11.632-.034a2.28 2.28 0 0 1-1.756-.798 2.262 2.262 0 0 1-.524-1.448c0-.142.015-.284.044-.416 0 0 .294-1.547.48-2.57-9.484 5.854-19.085 8.135-28.079 6.505-10.285-2.046-19.862-12.104-21.79-22.882a45.346 45.346 0 0 1-.734-8.629 2.27 2.27 0 0 1-1.522.588s-51.449.02-54.008.024c-.058.22-.093.421-.093.656 0 .827.284 1.899.656 3.123 0 0 .157.558.23.797 2.564 6.3 8.715 10.25 15.693 10.083 6.939-.157 13.369-3.48 19.08-9.867a2.232 2.232 0 0 1 1.678-.759h12.042c.778 0 1.507.401 1.914 1.062.42.656.474 1.483.146 2.183-6.836 14.375-22.167 24.032-38.256 24.032-11.191-.436-20.586-5.883-25.817-14.992-2.604-4.855-3.837-10.88-3.763-17.047l-7.066 28.696a1.709 1.709 0 0 1-1.66 1.302h-15.232c-.514 0-1.008-.24-1.322-.651a1.669 1.669 0 0 1-.332-1.444c5.95-24.776 14.293-59.991 17.322-73.926-7.286 8.531-64.382 75.321-64.382 75.321a1.644 1.644 0 0 1-1.272.587l-12.87.113c-.518 0-.998-.225-1.326-.636a1.681 1.681 0 0 1-.382-1.062c0-.118.005-.24.035-.358 5.446-25.07 13.065-60.77 15.747-74.655-7.022 8.39-63.649 76.109-63.649 76.109a1.743 1.743 0 0 1-1.355.602c-4.394-.152-7.707-.132-11.553-.113h-7.33A1.65 1.65 0 0 1 0 111.412Zm731.035-72.795a2.252 2.252 0 0 0-1.732-.812h-11.734a2.263 2.263 0 0 0-2.217 1.796l-.905 4.44c-2.608-2.335-5.207-3.833-8.93-5.282l-1.17-.509c-.142-.054-.284-.108-.43-.137-12.743-2.8-25.544 1.043-36.03 10.802-5.232 4.816-9.2 10.4-11.833 16.416l15.42-62.615a1.69 1.69 0 0 0-.31-1.453 1.674 1.674 0 0 0-1.33-.646H655.55c-.499 0-.95.2-1.272.577 0 0-54.733 61.783-62.146 70.162 2.182-10.523 14.391-68.703 14.391-68.703 0-.113.03-.24.03-.348 0-.377-.118-.763-.377-1.067a1.708 1.708 0 0 0-1.311-.621h-15.782c-.499 0-.963.215-1.282.577L508.98 92.236c-1.321-13.254-7.629-27.688-7.629-27.688-10.565-21.648-34.067-28.662-47.397-16.245l-.093.02-2.09 1.517c9.67-15.432 34.2-14.747 49.996 3.426 0 0 7.017 8.438 11.999 20.993a58.44 58.44 0 0 0 2.383-13.72c-8.221-11.13-17.49-17.664-17.49-17.664-19.95-13.46-43.834-7.772-49.173 9.642l-.068.074-1.033 2.354c.651-18.212 22.231-29.876 44.985-22.04 0 0 10.712 3.93 21.526 12.648-.147-.695-.294-1.39-.484-2.085a57.125 57.125 0 0 0-5.05-13.03c-12.615-5.462-23.792-6.48-23.792-6.48-24.017-1.669-41.843 15.173-37.762 32.935l-.03.093.27 2.565c-8.53-16.103 4.32-36.978 27.94-41.588 0 0 10.967-1.904 24.453.107a57.842 57.842 0 0 0-11.656-9.45c-13.52 1.585-23.606 6.264-23.606 6.264-21.619 10.552-28.645 34.07-16.23 47.413l.014.078 1.527 2.104c-15.44-9.68-14.74-34.212 3.415-50.001 0 0 8.485-7.078 21.105-12.085A57.255 57.255 0 0 0 458.96 0c-10.55 8.032-16.71 16.759-16.71 16.759-13.453 19.964-7.776 43.834 9.634 49.184l.064.059 2.368 1.052c-18.203-.656-29.864-22.24-22.03-45.005 0 0 3.607-9.813 11.563-20.13a58.067 58.067 0 0 0-12.908 5.07c-5.139 12.26-6.098 22.93-6.098 22.93-1.678 24.028 15.175 41.858 32.933 37.781l.078.025 2.584-.29c-16.104 8.551-36.994-4.311-41.58-27.947 0 0-1.84-10.557 0-23.713a58.314 58.314 0 0 0-9.972 12.47c1.723 12.966 6.122 22.49 6.122 22.49 10.555 21.64 34.058 28.658 47.392 16.236l.098-.02 2.084-1.512c-9.659 15.432-34.2 14.747-49.98-3.426 0 0-8.094-10.117-12.322-21.893a2.323 2.323 0 0 0-.504-1.503 2.31 2.31 0 0 0-1.757-.812h-11.72a2.274 2.274 0 0 0-2.226 1.796s-.9 1.366-1.316 4.062c-2.603-2.334-5.686-3.685-8.505-4.904l-1.189-.509a2.866 2.866 0 0 0-.426-.137c-12.737-2.8-25.533 1.043-36.025 10.802-6.195 5.707-10.648 12.471-13.173 19.783 0 0-.078.186-.215.48l4.986-28.73a2.285 2.285 0 0 0-.504-1.84 2.291 2.291 0 0 0-1.742-.803l-12.507.014a2.284 2.284 0 0 0-2.231 1.875l-12.924 70.5c-.112.66.069 1.34.5 1.864a2.263 2.263 0 0 0 1.736.798l13.183.035c1.116 0 2.06-.798 2.241-1.89l4.982-28.681c.054.18.098.298.098.298-.044 2.849.19 5.742.724 8.63 1.938 10.777 11.494 20.835 21.795 22.88 8.984 1.63 18.595-.65 28.078-6.504-.186 1.023-.484 2.57-.484 2.57a2.307 2.307 0 0 0-.035.416c0 .523.181 1.037.52 1.448.425.514 1.066.798 1.756.798l11.631.035c1.097 0 2.04-.774 2.232-1.85L399.5 55.551c7.663 9.104 17.69 16.876 17.69 16.876 19.945 13.47 43.814 7.782 49.153-9.627l.078-.074 1.038-2.364c-.651 18.213-22.236 29.88-44.995 22.035 0 0-9.811-3.607-20.15-11.565.087.376.16.768.259 1.15 1.228 4.767 3.004 9.285 5.304 13.484 12.028 4.953 22.402 5.888 22.402 5.888 24.002 1.679 41.833-15.173 37.752-32.935l.035-.093-.284-2.574c8.539 16.102-4.316 37.012-27.941 41.588 0 0-10.325 1.806-23.268.059a57.857 57.857 0 0 0 10.447 8.697c13.413-1.62 23.351-6.245 23.351-6.245 21.629-10.548 28.66-34.07 16.241-47.398l-.024-.103-1.517-2.08c15.438 9.671 14.748 34.193-3.41 49.997 0 0-8.662 7.195-21.463 12.211A57.526 57.526 0 0 0 451.032 115h5.236c10.755-8.11 17.029-17.023 17.029-17.023 13.466-19.96 7.79-43.844-9.626-49.18l-.073-.073-2.354-1.042c18.208.66 29.87 22.245 22.035 45.01 0 0-3.915 10.65-12.59 21.452.7-.157 1.37-.299 2.06-.48 4.399-1.116 8.538-2.746 12.39-4.733 5.382-12.525 6.37-23.591 6.37-23.591 1.689-23.998-15.169-41.848-32.937-37.766l-.073-.02-2.569.275c16.09-8.536 36.989 4.321 41.584 27.957 0 0 2.652 10.85.665 23.704a28.858 28.858 0 0 1-2.657 7.415 84.144 84.144 0 0 1-1.708 2.838c.015-.014.02-.029.02-.029-.005.03-.034.054-.054.088-.014.034-.014.04-.014.064a1.69 1.69 0 0 0-.098 1.546c.269.602.876.989 1.546.974h7.32c3.847-.02 7.155-.039 11.554.113a1.766 1.766 0 0 0 1.36-.602s56.626-67.72 63.643-76.109c-2.686 13.886-10.3 49.586-15.752 74.655-.02.118-.029.24-.029.358a1.684 1.684 0 0 0 1.708 1.698l12.874-.113c.49 0 .954-.21 1.273-.587 0 0 57.08-66.79 64.387-75.32-3.044 13.934-11.378 49.15-17.318 73.925-.04.132-.059.255-.059.397 0 .367.127.739.367 1.047.328.411.808.65 1.336.65h15.228c.778 0 1.468-.528 1.654-1.301l6.592-26.743.915-3.76c.029 1.073.044 1.924.044 1.924-.03 2.849.205 5.742.739 8.63 1.923 10.777 11.499 20.835 21.78 22.88 8.984 1.63 18.605-.65 28.088-6.504-.191 1.023-.485 2.57-.485 2.57a2.304 2.304 0 0 0 .47 1.864 2.314 2.314 0 0 0 1.752.798l11.641.035c1.106 0 2.04-.774 2.237-1.85l10.51-55.866 2.52-15.055a2.192 2.192 0 0 0-.528-1.503z" fill="#d9222a" fill-rule="evenodd"/></svg>
