<svg width="364" height="86" viewBox="0 -13 364 86" xmlns="http://www.w3.org/2000/svg"><g fill="none" fill-rule="evenodd"><path d="M138.366 51.914V28.96l-4.803 15.095h-4.496l-4.68-15.027V51.92h-8.747V7.867h7.7l8.006 21.593 8.006-21.593h7.755v44.047ZM153.4 51.92V7.867h8.653V51.92zM189.064 48.646c-1.999 1.916-5.386 3.274-9.7 3.274-4.384 0-7.64-1.235-9.646-3.213-2.185-2.156-2.945-5.246-2.945-9.756h8.892c0 1.794.13 3.09.946 4.018.498.553 1.37 1.05 2.752 1.05 1.376 0 2.254-.374 2.82-1.111.623-.744.872-1.917.872-3.705 0-4.202-.69-4.939-3.879-6.235l-5.628-2.292c-4.514-1.849-6.389-4.195-6.389-11.051 0-4.08 1.314-7.47 4.004-9.762 2.13-1.794 4.82-2.783 8.2-2.783 3.941 0 6.824.99 8.767 2.783 2.44 2.224 3.443 5.744 3.443 10.186h-8.891c0-1.542 0-2.962-.754-3.95-.498-.683-1.251-1.113-2.565-1.113-1.251 0-2.06.492-2.571 1.174-.56.737-.754 1.665-.754 3.145 0 2.777.505 3.582 3.076 4.632l5.573 2.224c5.628 2.285 7.26 4.755 7.26 12.723 0 4.46-.573 7.544-2.883 9.762zM213.733 51.92V33.481h-7.392V51.92h-8.888V7.867h8.888v17.694h7.392V7.867h8.894V51.92zM228.92 51.92V7.867h8.653V51.92zM266.588 51.914V28.96l-4.802 15.095h-4.495l-4.679-15.027V51.92h-8.745V7.867h7.704l8.005 21.593 8.004-21.593h7.753v44.047ZM303.505 48.255c-2.05 2.444-4.78 4.452-9.75 4.452-4.964 0-7.57-2.002-9.62-4.452-3.538-4.258-3.291-12.345-3.291-18.362 0-6.016-.253-14.103 3.291-18.361 2.05-2.444 4.656-4.452 9.62-4.452 4.97 0 7.7 2.008 9.75 4.452 3.538 4.258 3.291 12.345 3.291 18.361 0 6.017.247 14.104-3.29 18.362zM296.8 16.856c-.494-1.004-1.432-1.758-3.044-1.758-1.611 0-2.42.754-2.914 1.758-1.056 2.07-1.18 7.65-1.18 13.037 0 5.393.124 10.967 1.18 13.037.494 1.004 1.303 1.759 2.914 1.759 1.618 0 2.55-.755 3.044-1.759 1.056-2.07 1.18-7.65 1.18-13.037 0-5.393-.124-10.967-1.18-13.037zM326.135 15.787V51.92h-8.776V15.787h-7.412v-7.92h23.6v7.92zM360.144 48.255c-2.05 2.444-4.78 4.452-9.746 4.452-4.972 0-7.578-2.002-9.622-4.452-3.54-4.258-3.292-12.345-3.292-18.362 0-6.016-.247-14.103 3.292-18.361 2.05-2.444 4.657-4.452 9.622-4.452 4.966 0 7.696 2.008 9.746 4.452 3.54 4.258 3.292 12.345 3.292 18.361 0 6.017.247 14.104-3.292 18.362zm-6.707-31.399c-.494-1.004-1.427-1.758-3.039-1.758s-2.42.754-2.921 1.758c-1.056 2.07-1.174 7.65-1.174 13.037 0 5.393.118 10.967 1.174 13.037.494 1.004 1.31 1.759 2.921 1.759 1.612 0 2.545-.755 3.039-1.759 1.056-2.07 1.18-7.65 1.18-13.037 0-5.393-.124-10.967-1.18-13.037z" fill="#000" fill-rule="nonzero"/><path fill="#f58426" fill-rule="nonzero" d="M28.174 34.649 13.633 52.707H0l30.696-36.869-4.339-8.758h25.134L35.102 39.031l28.113-24.82-3.572-7.131h26.104L47.752 52.707H36.177l12.638-16.743-18.651 16.743H19.349z"/><path d="M100.697 0v59"/><path fill="#000" fill-rule="nonzero" d="M99.907 0h1.573v58.994h-1.573z"/><path fill="#000" fill-rule="nonzero" d="M99.12 0h2.36v59h-2.36z"/></g></svg>
