<svg version="1.0" width="130.6" height="33.3" viewBox="0 -5 130.6 33.3" xmlns="http://www.w3.org/2000/svg"><g transform="matrix(.3756 0 0 -.3756 -259.092 192.393)" fill="#003971"><path d="M767.871 458.683c-10.46 0-18.093 8.027-18.093 18.422 0 10.395 7.566 18.488 18.093 18.488 10.593 0 18.093-8.027 18.093-18.488 0-5.263-1.842-9.738-5.198-13.16-3.42-3.42-7.894-5.262-12.894-5.262m-10.001 18.422c0-6.777 4.343-11.317 10-11.317 5.658 0 9.935 4.408 9.935 11.317 0 6.842-4.277 11.382-9.935 11.382s-10-4.606-10-11.382M791.238 468.288v20.133h-4.145v6.908h4.145v7.961h7.37v-7.96h5.328v-6.909h-5.329v-19.408c0-1.58.394-1.908 1.513-1.908h6.25v-7.567h-6.447c-6.053 0-8.685 2.566-8.685 8.75M832.432 479.539c0 6.71-1.908 9.277-6.316 9.277-5.067 0-7.566-2.895-7.566-9.54v-19.738h-7.896v50.857h7.896v-17.631c2.434 2.104 5.262 3.157 8.553 3.157 8.091 0 13.224-5.921 13.224-15.856v-20.527h-7.895v20M863.361 465.854c3.948 0 7.501 1.646 11.053 5.79l5.725-4.671c-5.066-5.922-10.33-8.29-16.91-8.29-10.587 0-18.614 7.566-18.614 18.225 0 11.183 7.434 18.685 18.087 18.685 10.857 0 18.423-7.962 18.423-19.936v-1.447H852.51c.79-5.001 5.001-8.356 10.851-8.356m-10.785 15h19.864c-1.05 4.607-4.868 7.633-9.802 7.633-4.996 0-9.075-3.158-10.062-7.632M893.707 479.144v-19.607h-7.37v35.2h7.108v-2.566c1.908 2.105 4.342 3.158 7.303 3.158.657 0 1.38 0 2.829-.33v-7.894c-2.107.46-2.961.591-3.62.591-4.078 0-6.25-2.565-6.25-8.552M905.122 477.104c0 10.592 7.37 18.488 17.962 18.488 4.869 0 8.882-1.448 12.83-5.132l-5.001-5.856c-2.567 2.895-4.803 3.882-7.83 3.882-5.723 0-9.934-4.605-9.934-11.382 0-6.843 4.21-11.25 9.935-11.25 3.225 0 5.659 1.119 8.028 4.21l5.13-5.92c-4.342-4.014-8.224-5.462-13.158-5.462-10.527 0-17.962 7.83-17.962 18.422M966.104 463.354c-2.829-2.896-6.579-4.277-11.119-4.277-10.197 0-17.829 8.028-17.829 18.16 0 10.79 7.104 18.157 17.83 18.157 4.606 0 8.551-1.579 11.58-4.539v3.882h7.367v-35.2h-7.829Zm-20.923 13.816c0-6.645 4.475-11.118 10.66-11.118 6.118 0 10.591 4.54 10.591 11.118 0 6.58-4.473 11.12-10.592 11.12-6.184 0-10.659-4.54-10.659-11.12M987.792 479.144v-19.607h-7.37v35.2h7.106v-2.566c1.908 2.105 4.342 3.158 7.303 3.158.659 0 1.38 0 2.829-.33v-7.894c-2.105.46-2.961.591-3.618.591-4.08 0-6.25-2.565-6.25-8.552M1016.882 465.854c3.947 0 7.5 1.646 11.053 5.79l5.723-4.671c-5.065-5.922-10.328-8.29-16.909-8.29-10.59 0-18.618 7.566-18.618 18.225 0 11.183 7.434 18.685 18.092 18.685 10.857 0 18.422-7.962 18.422-19.936v-1.447h-28.62c.791-5.001 5.002-8.356 10.857-8.356m-10.79 15h19.868c-1.052 4.607-4.868 7.633-9.803 7.633-4.999 0-9.079-3.158-10.066-7.632M737.376 479.228c0 6.578-2.172 9.145-6.184 9.145-5 0-7.435-2.764-7.435-9.41v-19.409h-7.632v19.674c0 6.512-2.237 9.145-6.25 9.145-5 0-7.435-2.764-7.435-9.41v-19.409h-9.417v35.2h9.351v-2.5c2.501 2.105 5.264 3.157 8.554 3.157 4.013 0 7.171-1.579 9.736-4.869 3.093 3.226 6.777 4.87 11.251 4.87 8.027 0 13.29-5.856 13.29-15.592v-20.265h-7.829v19.673"/></g></svg>
