<svg width="50" height="50" viewBox="0 0 50 50" fill="none" xmlns="http://www.w3.org/2000/svg"><g><path d="M50 0H0v50h50V0Z" fill="#FF7900"/><path d="M19.359 44.706c-.679.45-1.477.69-2.294.686-1.298 0-2.065-.858-2.065-2.007 0-1.547 1.432-2.367 4.383-2.698v-.384c0-.503-.384-.793-1.093-.793a2.087 2.087 0 0 0-1.695.793l-1.235-.7c.649-.901 1.638-1.35 2.967-1.35 1.813 0 2.822.78 2.822 2.05v5.01h-1.623l-.167-.608Zm-2.567-1.455c0 .465.295.9.826.9.577 0 1.136-.24 1.697-.73v-1.636c-1.712.216-2.523.652-2.523 1.47v-.004ZM23 38.595l1.515-.208.166.82c.855-.623 1.535-.954 2.39-.954 1.432 0 2.17.755 2.17 2.25v4.812h-1.83V40.82c0-.846-.222-1.226-.881-1.226-.547 0-1.092.25-1.713.767v4.958H23v-6.724ZM41.276 45.447c-2.052 0-3.276-1.31-3.276-3.583 0-2.274 1.235-3.61 3.246-3.61 2.01 0 3.201 1.27 3.201 3.517 0 .12-.014.238-.014.35h-4.634c.014 1.31.561 1.97 1.639 1.97.693 0 1.15-.277 1.579-.876l1.342.739c-.591.977-1.653 1.492-3.083 1.492Zm1.372-4.496c0-.925-.53-1.468-1.402-1.468-.826 0-1.343.526-1.412 1.468h2.814ZM6.443 45.543C4.632 45.543 3 44.397 3 41.895c0-2.501 1.632-3.642 3.443-3.642 1.812 0 3.443 1.148 3.443 3.648s-1.633 3.642-3.443 3.642Zm0-5.757c-1.367 0-1.62 1.227-1.62 2.102 0 .876.253 2.111 1.62 2.111s1.621-1.226 1.621-2.11c0-.885-.254-2.103-1.62-2.103ZM11 38.396h1.741v.813a2.693 2.693 0 0 1 1.917-.955 1.53 1.53 0 0 1 .237.012v1.706h-.088c-.798 0-1.67.123-1.94.738v4.597H11v-6.911ZM33.223 43.831c1.39-.01 1.506-1.414 1.506-2.331 0-1.08-.53-1.959-1.519-1.959-.658 0-1.391.477-1.391 2.034 0 .855.06 2.265 1.404 2.256Zm3.267-5.451v6.543c0 1.156-.089 3.057-3.407 3.078-1.367 0-2.635-.535-2.889-1.722l1.808-.29c.076.34.284.68 1.309.68.95 0 1.411-.452 1.411-1.533v-.804l-.025-.024c-.29.515-.733 1.005-1.797 1.005-1.621 0-2.9-1.117-2.9-3.454 0-2.311 1.318-3.604 2.798-3.606 1.388 0 1.903.626 2.021.957h-.021l.15-.827 1.541-.003ZM44.82 35.579h-.72v1.98h-.38v-1.98H43v-.305h1.82v.305Zm2.999 1.98h-.38V35.65h-.012l-.753 1.907h-.24l-.753-1.907h-.01v1.907h-.38v-2.277h.586l.686 1.734.676-1.734h.58v2.277Z" fill="#fff"/></g></svg>
