<svg height="154" viewBox="0 -0.05 16.765 4.157" width="604.039" xmlns:xlink="http://www.w3.org/1999/xlink" xmlns="http://www.w3.org/2000/svg"><g transform="matrix(.35278 0 0 .35278 -15.764 -255.685)"><use fill="#fff" height="100%" width="100%" x="604.467" xlink:href="#a" y="461.686"/><use fill="#5e5e61" height="100%" width="100%" x="63.516" xlink:href="#b" y="72.44"/><use fill="#5e5e61" height="100%" width="100%" x="87.364" xlink:href="#c" y="72.44"/><use fill="#5e5e61" height="100%" width="100%" x="85.54" xlink:href="#c" y="83.441"/><use fill="#5e5e61" height="100%" width="100%" x="62.883" xlink:href="#c" y="94.442"/><use fill="#5e5e61" height="100%" width="100%" x="63.002" xlink:href="#b" y="105.443"/><use fill="#5e5e61" height="100%" width="100%" x="64.289" xlink:href="#c" y="105.443"/><use fill="#5e5e61" height="100%" width="100%" x="65.02" xlink:href="#c" y="116.444"/><use fill="#5e5e61" height="100%" width="100%" x="44.622" xlink:href="#b" y="182.45"/><use fill="#ee3023" height="100%" width="100%" x="246.703" xlink:href="#d" y="61.897"/><use fill="#5e5e61" height="100%" width="100%" x="308.391" xlink:href="#c" y="73.355"/><use fill="#ee3023" height="100%" width="100%" x="231.275" xlink:href="#d" y="101.769"/><use fill="#5e5e61" height="100%" width="100%" x="261.433" xlink:href="#c" y="113.226"/><use fill="#ee3023" height="100%" width="100%" x="222.435" xlink:href="#d" y="141.641"/></g><path d="M4.134 2.005a2.067 2.067 0 1 1-4.134 0 2.067 2.067 0 0 1 4.134 0" fill="#ee3023"/><path d="M2.084 3.158C1.516 3.16.924 2.675.922 1.896c-.002-.514.276-1.01.631-1.304.346-.286.82-.47 1.25-.472a.52.52 0 0 1 .15.017.859.859 0 0 0-.675.825c0 .013.002.027.003.034.63.153.915.533.917 1.058a1.106 1.106 0 0 1-1.114 1.104" fill="#fff"/><g fill="#ee3023"><path d="m5.47 2.861-.633-1.508h.413l.394 1.002.382-1.002h.395l-.614 1.508zM7.52 2.1a.704.704 0 0 0-.022-.18.428.428 0 0 0-.065-.145.332.332 0 0 0-.107-.098.287.287 0 0 0-.147-.036.286.286 0 0 0-.147.036.328.328 0 0 0-.106.098.428.428 0 0 0-.066.145.704.704 0 0 0-.022.18.7.7 0 0 0 .022.18.472.472 0 0 0 .064.146.299.299 0 0 0 .255.135.29.29 0 0 0 .254-.135.45.45 0 0 0 .065-.146.7.7 0 0 0 .022-.18m.382 0a.956.956 0 0 1-.045.29.796.796 0 0 1-.135.256.663.663 0 0 1-.543.25.668.668 0 0 1-.543-.25.803.803 0 0 1-.134-.255.956.956 0 0 1 0-.578.788.788 0 0 1 .134-.252.66.66 0 0 1 .226-.178.707.707 0 0 1 .317-.067.677.677 0 0 1 .541.246c.061.073.107.157.137.251.03.094.045.19.045.288M9.068 1.685a.576.576 0 0 0-.21-.044.337.337 0 0 0-.29.14.465.465 0 0 0-.068.144.584.584 0 0 0-.024.165.78.78 0 0 0 .02.18.465.465 0 0 0 .063.151.331.331 0 0 0 .105.104c.043.026.093.04.152.04a.316.316 0 0 0 .146-.04.259.259 0 0 0 .106-.093zm.03 1.176-.015-.115a.48.48 0 0 1-.14.104.557.557 0 0 1-.48-.02.614.614 0 0 1-.2-.175.801.801 0 0 1-.123-.254 1.075 1.075 0 0 1-.042-.3c0-.098.014-.194.043-.288a.762.762 0 0 1 .133-.252.662.662 0 0 1 .538-.246c.079 0 .164.015.256.044V.774h.388v2.087zM10.548 2.154a2.218 2.218 0 0 0-.255.032c-.084.016-.142.045-.175.085a.21.21 0 0 0-.049.134c0 .05.019.09.055.12a.24.24 0 0 0 .156.045c.05 0 .1-.01.147-.03a.435.435 0 0 0 .12-.08zm.031.706-.015-.113a.43.43 0 0 1-.16.11.565.565 0 0 1-.4.006.458.458 0 0 1-.313-.446.427.427 0 0 1 .163-.344.663.663 0 0 1 .173-.097 1.487 1.487 0 0 1 .369-.08l.149-.014V1.86c0-.084-.021-.143-.065-.179a.271.271 0 0 0-.177-.053.549.549 0 0 0-.316.102.589.589 0 0 0-.059.042L9.8 1.5a.86.86 0 0 1 .202-.114.917.917 0 0 1 .593-.038.463.463 0 0 1 .296.282.717.717 0 0 1 .042.26v.97zM12.132 1.118a.506.506 0 0 0-.22-.044c-.053 0-.1.017-.136.05-.036.031-.054.084-.054.157v.072h.325v.313h-.322V2.86h-.388V1.666h-.2v-.313h.2v-.081c0-.098.012-.181.037-.25a.41.41 0 0 1 .263-.26.851.851 0 0 1 .538.033zM13.19 2.1a.721.721 0 0 0-.023-.18.428.428 0 0 0-.065-.145.332.332 0 0 0-.107-.098.287.287 0 0 0-.147-.036.286.286 0 0 0-.147.036.334.334 0 0 0-.106.098.443.443 0 0 0-.066.145.721.721 0 0 0 0 .36.482.482 0 0 0 .064.146.316.316 0 0 0 .106.099.301.301 0 0 0 .15.036.29.29 0 0 0 .253-.135.45.45 0 0 0 .065-.146.717.717 0 0 0 .022-.18m.382 0a.945.945 0 0 1-.046.29.788.788 0 0 1-.134.256.663.663 0 0 1-.543.25.668.668 0 0 1-.543-.25.803.803 0 0 1-.134-.255.944.944 0 0 1 0-.578.788.788 0 0 1 .134-.252.66.66 0 0 1 .226-.178.707.707 0 0 1 .317-.067.677.677 0 0 1 .541.246c.061.073.106.157.136.251.03.094.046.19.046.288M14.775 2.861v-.86a.431.431 0 0 0-.071-.266.24.24 0 0 0-.2-.094.311.311 0 0 0-.168.047.705.705 0 0 0-.133.103v1.07h-.388V1.353h.353l.02.119a.677.677 0 0 1 .434-.156c.08 0 .152.012.22.035a.43.43 0 0 1 .171.115c.048.052.085.12.111.203.026.084.04.184.04.3v.892zM16.37 1.926a.397.397 0 0 0-.032-.136.288.288 0 0 0-.067-.094.263.263 0 0 0-.177-.07.297.297 0 0 0-.192.074.321.321 0 0 0-.107.226zm-.584.278c.008.127.048.22.119.275a.432.432 0 0 0 .276.085.759.759 0 0 0 .27-.05.74.74 0 0 0 .092-.044.304.304 0 0 0 .056-.04l.104.316a.729.729 0 0 1-.191.092 1.32 1.32 0 0 1-.382.058.84.84 0 0 1-.28-.047.626.626 0 0 1-.233-.146.711.711 0 0 1-.16-.245.929.929 0 0 1-.06-.35c0-.128.019-.24.055-.339a.664.664 0 0 1 .643-.454.74.74 0 0 1 .266.047c.082.032.152.08.212.146.059.066.106.15.14.255.035.104.052.228.052.372v.07zm0 0"/></g></svg>
